<svg xmlns="http://www.w3.org/2000/svg" xmlns:xlink="http://www.w3.org/1999/xlink" width="1922" height="1080" viewBox="0 0 1922 1080"><defs><linearGradient id="a" x1="0.93" y1="0.649" x2="0.052" y2="0.366" gradientUnits="objectBoundingBox"><stop offset="0" stop-color="#9938d2"/><stop offset="1" stop-color="#351087"/></linearGradient><clipPath id="b"><rect width="1922" height="1080" fill="#fff"/></clipPath><linearGradient id="c" x1="0.5" y1="0" x2="0.5" y2="1" xlink:href="#a"/><linearGradient id="d" x1="0.5" x2="0.5" y2="1" gradientUnits="objectBoundingBox"><stop offset="0" stop-color="#9636cf"/><stop offset="1" stop-color="#361188"/></linearGradient></defs><g transform="translate(2)"><g transform="translate(-2)"><rect width="1922" height="1080" fill="url(#a)"/><g clip-path="url(#b)"><g transform="translate(786.819 -240.601)"><path d="M1535.561,532.759c-11.838,17.761-23.8,35.721-34.845,54.041-38,63.065-78.3,150.871-71.068,220.913,5.848,57.078,7.888,111.239,1.547,161.723-8.424,67.212-31.7,128-80.65,180.606-30.774,33.127-71.786,63.017-125.608,89.279-85.837,41.868-179.517,65.42-281.32,71.522-104.592,6.306-216.41,24.227-307.612,63.743-86.5,37.437-149.9,96.9-247.092,120.53-66.24,16.088-121.75,17.92-167.817,9.144-29.529-5.667-55.2-15.646-77.369-29.1-117.183-70.924-135.8-237.037-107.252-355.216,2.306-9.5,4.877-18.719,7.759-27.535C83.253,972.947,186.426,875.287,236.083,759.5a277.293,277.293,0,0,0,17.735-56.316C271.775,610.826,211.7,500.31,305.516,422c100.513-83.815,285.754-24.027,375.936-105.164,68.018-61.185,46.421-158.889,134.12-211.693,224.657-135.3,624.713-9.264,755.862,152.823C1652.483,358.188,1595.509,442.917,1535.561,532.759Z" transform="translate(-24.674 -47.848)" fill="url(#c)"/><path d="M584.14,1267.234q-11.5-10.353-22.368-21.063c-104.96,27.22-235.036,22.52-365.348-19.035q-35.314-11.261-70.5-26.146c-2.3-1-4.611-1.956-6.872-2.954C1.871,1127.112-16.746,961,11.8,842.82,108.281,761.838,231.627,696.865,260.535,552.5c16.671-83.26,39.9-183.236,115.543-250.252,94.527-83.771,263.673-84.733,355.807-175.373C775.38,84.057,814.042,23.787,888.085,5.871,1020.609-26.219,1129.373,81.1,1214.5,137.58c84.729,56.236,198.095,78.542,296.39,118.056,25.587,10.217,50.106,21.636,72.9,35.126,78.284,46.306,97,105.594,77.391,163.548,192.845,247.7,166.376,591.655-79.428,812.924-137.74,123.993-318.272,185.989-498.8,185.989S721.88,1391.227,584.14,1267.234Z" transform="translate(0 229.276)" stroke="rgba(0,0,0,0)" stroke-width="1" fill="url(#d)"/></g><g transform="translate(567.591 -271.873)"><path d="M48.62,24.631c-5.4-7.972-16.96-10.5-25.823-5.642S11.129,34.257,16.53,42.235c4.814,7.111,14.512,9.849,22.845,6.922H49.6V40.565A15.438,15.438,0,0,0,48.62,24.631Z" transform="translate(55.467 142.203)" fill="#812dbf"/><path d="M111.923,24.513a6.676,6.676,0,0,0-.434-6.7,8.816,8.816,0,0,0-11.375-2.491c-3.909,2.147-5.145,6.733-2.767,10.245A8.636,8.636,0,0,0,107,28.623h4.922Z" transform="translate(498.219 131.387)" fill="#812dbf"/><path d="M36.378,51.74A3.935,3.935,0,0,0,31.3,50.626,3.146,3.146,0,0,0,30.066,55.2a3.86,3.86,0,0,0,4.3,1.366h2.2V54.724A2.973,2.973,0,0,0,36.378,51.74Z" transform="translate(140.122 301.571)" fill="#812dbf"/><path d="M108.132,2.323C103.554-4.444,93.741-6.59,86.218-2.464s-9.9,12.954-5.318,19.727c4.087,6.038,12.319,8.363,19.39,5.877h8.678v-7.3A13.087,13.087,0,0,0,108.132,2.323Z" transform="translate(403.761 42.291)" fill="#812dbf"/><path d="M75.938,13.981a16.539,16.539,0,0,0-.032-25.117V-11l-.07-.069v.132l-.064-.075v.132l-.07-.069v.132l-.064-.075v.132l-.07-.069v.132l-.064-.075v.132l-.07-.069v.132l-.064-.075v.132l-.07-.069v.132l-.064-.075v.132l-.064-.069v.132l-.07-.075v.132l-.064-.075v.138l-.07-.075v.132l-.064-.075v.138l-.07-.075v.132l-.064-.075v.138l-.07-.075v.132l-.064-.075v.138l-.07-.075V-9.8L74.5-9.873v.138L74.44-9.81v.132l-.07-.075v.138l-.064-.075v.132l-.07-.075v.138l-.064-.075v.132l-.07-.075v.132l-.064-.069v.132l-.07-.075v.132L73.9-9.328V-9.2l-.07-.075v.132l-.064-.069v.132l-.064-.075v.132l-.07-.069v.132l-.064-.075V-8.9l-.07-.069v.132l-.064-.075v.132l-.07-.069v.132L73.3-8.788v.132l-.07-.069v.132l-.064-.075v.132l-.07-.075v.138l-.064-.075v.132l-.064-.075v.138l-.07-.075v.132l-.064-.075v.138l-.07-.075v.132l-.064-.075v.138l-.07-.075v.132l-.064-.075v.138l-.07-.075v.132l-.064-.075v.132l-.07-.069v.132L72.3-7.887v.132l-.064-.069v.132l-.07-.075v.132L72.106-7.7v.132l-.07-.075v.132l-.064-.069v.132l-.07-.075v.132l-.064-.069v.132l-.07-.075v.132L71.7-7.342v.132l-.07-.075v.132l-.064-.069v.132l-.064-.075v.132l-.07-.075v.138l-.064-.075v.132l-.07-.075v.138l-.064-.075v.132l-.07-.075v.138L71.105-6.8v.132l-.07-.075v.138l-.064-.075v.132l-.07-.075v.138l-.064-.075v.132L70.774-6.5v.138l-.07-.075v.132l-.064-.075v.138l-.07-.075v.132l-.064-.075v.132l-.07-.069v.132l-.064-.075v.132l-.07-.069v.132l-.064-.075v.132l-.07-.069v.132L70.1-5.9v.132l-.064-.069v.132l-.07-.075v.132l-.064-.069v.132l-.07-.075v.132L69.772-5.6v.138L69.7-5.54v.132l-.064-.075v.138l-.07-.075v.132L69.5-5.362v.138l-.07-.075v.132l-.064-.075V-5.1l-.064-.075v.132l-.07-.075v.138l-.064-.075v.132L69.1-5v.138l-.064-.075v.132l-.07-.075v.155c-.025-.029-.038-.069-.064-.092v.149c-.032-.029-.038-.063-.07-.092v.149c-.025-.023-.032-.063-.064-.086v.149c-.032-.029-.038-.063-.07-.092v.149c-.025-.023-.032-.063-.064-.086v.149c-.032-.029-.038-.063-.064-.092v.149c-.032-.023-.038-.063-.07-.086v.149c-.026-.029-.038-.063-.064-.092v.149c-.032-.023-.038-.063-.07-.086v.149c-.026-.029-.038-.063-.064-.092v.149c-.032-.023-.038-.063-.07-.086v.149c-.025-.029-.038-.063-.064-.092v.149c-.032-.023-.038-.063-.07-.086v.149c-.026-.029-.032-.063-.064-.092v.149c-.032-.023-.038-.063-.07-.086v.149c-.025-.029-.032-.063-.064-.092v.149c-.032-.029-.038-.063-.064-.086V-3.7c-.032-.029-.038-.063-.07-.092v.149c-.025-.029-.038-.063-.064-.092v.155c-.032-.029-.038-.063-.07-.092v.149c-.025-.029-.038-.063-.064-.092v.155c-.032-.029-.038-.063-.07-.092V-3.4c-.026-.029-.038-.063-.064-.092v.155c-.032-.029-.038-.063-.07-.092v.149c-.025-.029-.032-.063-.064-.092v.155c-.032-.029-.038-.069-.07-.092v.149c-.025-.029-.032-.063-.064-.092v.149c-.032-.023-.038-.063-.064-.086v.149c-.032-.029-.038-.063-.07-.092v.149c-.026-.023-.038-.063-.064-.086v.149c-.032-.029-.038-.063-.07-.092v.149c-.026-.023-.038-.063-.064-.086V-2.8c-.032-.029-.038-.063-.07-.092v.149c-.026-.023-.038-.063-.064-.086v.149c-.032-.029-.038-.063-.07-.092v.149c-.026-.023-.032-.063-.064-.086v.149c-.032-.029-.038-.063-.07-.092V-2.5c-.026-.023-.032-.063-.064-.086v.149c-.032-.029-.038-.063-.064-.092v.149c-.032-.023-.038-.063-.07-.086v.149c-.026-.029-.038-.063-.064-.092v.149c-.032-.023-.038-.063-.07-.086V-2.2c-.025-.029-.038-.063-.064-.092v.149c-.032-.029-.038-.063-.07-.092v.155c-.026-.029-.038-.063-.064-.092v.149c-.032-.023-.038-.063-.07-.092v.155c-.026-.029-.032-.063-.064-.092V-1.9c-.032-.029-.038-.063-.07-.092v.155c-.025-.029-.032-.063-.064-.092v.149c-.026-.029-.038-.063-.064-.092v.155c-.032-.029-.038-.069-.07-.092v.149c-.025-.029-.038-.063-.064-.092V-1.6c-.032-.029-.038-.069-.07-.092v.149c-.026-.029-.038-.063-.064-.092v.149c-.032-.023-.038-.063-.07-.086v.149c-.026-.029-.038-.063-.064-.092v.155c-.032-.029-.038-.069-.07-.092V-1.3c-.026-.029-.032-.063-.064-.092v.149c-.032-.023-.038-.063-.07-.086v.149c-.026-.029-.032-.063-.064-.092v.149c-.025-.023-.038-.063-.064-.086v.149c-.032-.029-.038-.063-.07-.092V-1c-.025-.023-.038-.063-.064-.086v.149c-.032-.029-.038-.063-.07-.092v.149c-.025-.029-.038-.063-.064-.086v.149c-.032-.029-.038-.063-.07-.092v.149c-.025-.023-.038-.063-.064-.086V-.7c-.032-.029-.038-.063-.07-.092v.149C64.41-.667,64.4-.7,64.372-.73v.155c-.032-.029-.038-.063-.07-.092v.149c-.026-.029-.032-.063-.064-.092v.155c-.026-.029-.038-.063-.064-.092V-.4c-.032-.029-.038-.063-.07-.092v.155c-.026-.029-.038-.063-.064-.092v.149C64.009-.305,64-.34,63.97-.368v.155c-.026-.029-.038-.069-.064-.092v.149c-.032-.029-.038-.063-.07-.092v.155c-.025-.029-.038-.069-.064-.092v.2c-.038-.04-.026-.1-.07-.143V.079c-.038-.04-.019-.1-.064-.143V.142C63.6.1,63.613.033,63.569-.007V.2h0C63.53.154,63.549.1,63.5.056V.2h-.026c-.025-.029-.013-.063-.038-.086V.2h-.057L63.371.177V.2h-.166a2,2,0,0,0-2.461,0h-.179V.177L60.559.2H60.5V.119L60.463.2h-.032V.056c-.038.04-.019.1-.057.143h-.006V0c-.045.04-.026.1-.07.143V-.064c-.045.04-.025.1-.064.149V-.122c-.045.04-.026.1-.064.143v-.2c-.032.023-.045.063-.07.086V-.242c-.032.029-.038.063-.064.092V-.3c-.032.023-.038.063-.07.086V-.363c-.032.029-.038.063-.064.092V-.42c-.032.023-.038.063-.07.092V-.483c-.032.029-.038.063-.064.092V-.541c-.032.023-.038.063-.07.092V-.6c-.032.029-.038.063-.064.092V-.661c-.032.029-.038.063-.07.092V-.724c-.026.029-.038.069-.064.092V-.782c-.032.029-.038.063-.07.092V-.839c-.026.023-.038.063-.064.086V-.9c-.032.029-.038.063-.07.092V-.96c-.025.023-.038.063-.064.086v-.149c-.032.029-.038.063-.07.092V-1.08c-.026.023-.038.063-.064.092v-.155c-.032.029-.038.063-.07.092V-1.2c-.025.023-.038.063-.064.092v-.155c-.032.029-.038.063-.07.092v-.149c-.026.029-.038.063-.064.092v-.155c-.032.029-.038.069-.07.092v-.149c-.025.029-.038.063-.064.092V-1.5c-.032.023-.038.063-.07.086v-.149c-.026.029-.038.063-.064.092V-1.62c-.032.023-.038.063-.064.086v-.149c-.032.029-.038.063-.07.092V-1.74c-.032.023-.038.063-.064.092V-1.8c-.032.029-.038.063-.07.092v-.149c-.032.029-.038.063-.064.092v-.155c-.032.029-.038.063-.07.092v-.149c-.032.029-.038.063-.064.092v-.155c-.032.029-.038.069-.07.092V-2.1c-.032.029-.038.063-.064.092v-.149c-.032.023-.038.063-.07.086v-.149c-.025.029-.038.063-.064.092V-2.28c-.032.023-.038.063-.07.086v-.149c-.025.029-.038.063-.064.092V-2.4c-.032.023-.038.063-.07.092v-.155c-.025.029-.038.063-.064.092v-.149c-.032.023-.038.063-.07.092v-.155c-.026.029-.038.063-.064.092v-.149c-.032.029-.038.063-.07.092V-2.7c-.026.029-.038.069-.064.092v-.149c-.032.029-.038.063-.07.092v-.149c-.025.023-.038.063-.064.086v-.149c-.032.029-.038.063-.07.092V-2.94c-.026.023-.038.063-.064.086V-3c-.032.029-.038.063-.07.092V-3.06c-.026.023-.032.063-.064.092v-.155c-.032.029-.038.063-.07.092v-.149c-.026.023-.032.063-.064.092v-.155c-.032.029-.038.063-.064.092V-3.3c-.032.029-.038.063-.07.092v-.155c-.032.029-.038.069-.064.092v-.149c-.032.029-.038.063-.07.092v-.149c-.032.023-.038.063-.064.086v-.149c-.032.029-.038.063-.07.092V-3.6c-.032.023-.038.063-.064.086v-.149c-.032.029-.038.063-.07.092V-3.72c-.026.023-.038.063-.064.092v-.155c-.032.029-.038.063-.07.092v-.149c-.026.023-.038.063-.064.092V-3.9c-.032.029-.038.069-.07.092v-.149c-.026.029-.038.063-.064.092v-.155c-.032.029-.038.069-.07.092v-.149c-.026.029-.038.063-.064.092v-.149c-.032.023-.038.063-.07.086V-4.2c-.025.029-.038.063-.064.092V-4.26c-.032.023-.038.063-.07.086v-.149c-.026.029-.038.063-.064.092V-4.38c-.032.023-.038.063-.07.092v-.155c-.025.029-.038.063-.064.092V-4.5c-.032.023-.038.063-.07.092v-.155c-.026.029-.038.069-.064.092v-.149c-.032.029-.038.063-.07.092v-.155c-.025.029-.038.069-.064.092v-.149c-.032.029-.038.063-.07.092V-4.8c-.025.023-.032.063-.064.086v-.149l-.07.075V-4.92l-.064.069v-.132l-.064.075V-5.04l-.07.075V-5.1l-.064.075v-.132l-.07.075v-.138l-.064.075v-.132l-.07.075v-.138l-.064.075V-5.4l-.07.075v-.132l-.064.069v-.132l-.07.075V-5.58l-.064.069v-.132l-.07.075V-5.7l-.064.075v-.138l-.07.075v-.132l-.064.075v-.138l-.07.075v-.132l-.064.075V-6l-.07.075v-.132l-.064.075V-6.12l-.07.069v-.132l-.064.075V-6.24l-.07.069V-6.3l-.064.075v-.132l-.07.075v-.138l-.064.075v-.132l-.064.075v-.138l-.07.075V-6.6l-.064.075v-.138l-.07.075v-.132l-.064.075V-6.78l-.07.069v-.132l-.064.075V-6.9l-.07.069v-.132l-.064.075v-.132l-.07.075v-.138l-.064.075v-.132l-.07.075V-7.2l-.064.075v-.132l-.07.075v-.138l-.064.075v-.132l-.07.075V-7.44l-.064.069V-7.5l-.07.075V-7.56l-.064.069v-.132l-.07.075v-.132l-.064.075v-.138l-.07.075V-7.8l-.064.075v-.138l-.07.075v-.132l-.064.075v-.138l-.07.075v-.132l-.064.075V-8.1l-.064.069v-.132l-.07.075V-8.22l-.064.069v-.132l-.07.075v-.132l-.064.075V-8.4l-.07.075v-.132l-.064.075v-.138l-.07.075v-.132l-.064.075v-.138l-.07.075V-8.7l-.064.075V-8.76a13.44,13.44,0,0,0,.026,20.422v.063h-.064l.064.046v.017H50.5l.083.057H50.44l.083.063H50.37l.083.057h-.147l.083.063h-.153l.083.057h-.147l.083.063h-.147l.077.057h-.147l.083.057h-.147l.083.063H49.9l.083.057h-.147l.083.063h-.153l.083.057h-.147l.083.063h-.153l.083.057h-.147l.083.063H49.5l.083.057h-.147l.083.063h-.147l.076.057h-.147l.083.063h-.147l.083.057h-.153l.083.063h-.147l.083.057h-.153l.083.063h-.147l.083.057H48.9l.083.063H48.84l.083.057h-.147l.077.063h-.147l.083.057h-.147l.077.063h-.147l.083.057h-.147l.083.063h-.153l.083.057h-.147l.083.057H48.3l.083.063h-.147l.083.057H48.17l.083.063h-.147l.083.057h-.147l.077.063h-.147l.083.057h-.147l.077.063h-.147l.083.057h-.147l.083.063H47.7l.083.057h-.147l.083.063h-.153l.083.057h-.147l.083.063h-.153l.083.057h-.147l.083.063H47.3l.083.057h-.147l.083.063h-.147l.077.057h-.147l.083.063h-.147l.083.057h-.153l.083.063h-.147l.083.057h-.153l.083.063h-.147l.083.057H46.7l.083.063H46.64l.083.057H46.57l.083.063h-.147l.083.057h-.147l.077.063h-.147l.083.057h-.147l.083.057h-.153l.083.063h-.147l.083.057H46.1l.083.063h-.147l.083.057h-.153l.083.063h-.147L45.99,16h-.153l.083.063h-.147l.083.057h-.147l.077.063h-.147l.083.057h-.147l.083.063h-.153l.083.057h-.147l.083.063h-.153l.083.057h-.147l.083.063h-.153l.083.057h-.147l.083.063H45.1l.083.057H45.04l.083.063h-.147a25.993,25.993,0,0,0,34.035-.04h-.147l.083-.063H78.8l.076-.057h-.147l.083-.063h-.147l.077-.057H78.6l.083-.057h-.147l.077-.063h-.147l.083-.057H78.4l.077-.063h-.147l.083-.057h-.147l.077-.063H78.2l.083-.057h-.147l.083-.063h-.153l.083-.057H78l.083-.063h-.153l.083-.057h-.147l.083-.057h-.153l.083-.063H77.73l.083-.057H77.66l.083-.063H77.6l.083-.057h-.153l.083-.063h-.147l.083-.057h-.153l.083-.063h-.147l.083-.057h-.153l.083-.063h-.147l.083-.057H77.13l.077-.057H77.06l.083-.063H77L77.073,15h-.147l.083-.063h-.147l.076-.057h-.147l.083-.063h-.147l.077-.057h-.147l.083-.063h-.147l.077-.057h-.147l.083-.063h-.147l.077-.057h-.147l.083-.063h-.147L76.4,14.4h-.147l.083-.057h-.147l.083-.063h-.153l.083-.057h-.147l.083-.063h-.153l.083-.057h-.14V14.1l.076-.057h-.076v-.052Z" transform="translate(223.167 11.136)" fill="#812dbf"/><path d="M92.552,31.565c-10.1,0-18.287,7.37-18.287,16.467S82.452,64.5,92.552,64.5a19.648,19.648,0,0,0,9.908-2.657h4.17V58.432a15.386,15.386,0,0,0,4.215-10.4C110.844,38.935,102.658,31.565,92.552,31.565Z" transform="translate(380.626 213.524)" fill="#812dbf"/><path d="M18.273,40.783A8.808,8.808,0,0,0,6.9,38.3c-3.909,2.141-5.145,6.727-2.767,10.24a8.636,8.636,0,0,0,9.653,3.053h4.922v-4.11A6.662,6.662,0,0,0,18.273,40.783Z" transform="translate(-2.921 240.254)" fill="#812dbf"/><path d="M18.9,4.042A8.829,8.829,0,0,0,7.516,1.557,7.037,7.037,0,0,0,4.756,11.8,8.629,8.629,0,0,0,14.4,14.856h4.929v-4.11A6.687,6.687,0,0,0,18.9,4.042Z" transform="translate(0.413 66.136)" fill="#812dbf"/><path d="M66.442,66A8.823,8.823,0,0,0,55.061,63.5c-3.9,2.147-5.139,6.733-2.761,10.245A8.636,8.636,0,0,0,61.953,76.8h4.922v-4.11A6.677,6.677,0,0,0,66.442,66Z" transform="translate(256.038 359.749)" fill="#812dbf"/><path d="M107.033,43.631a8.821,8.821,0,0,0-11.375-2.485,7.043,7.043,0,0,0-2.767,10.245,8.647,8.647,0,0,0,9.647,3.053h4.929v-4.11A6.687,6.687,0,0,0,107.033,43.631Z" transform="translate(474.258 253.775)" fill="#812dbf"/><path d="M74.01,10.589A8.823,8.823,0,0,0,62.629,8.1c-3.9,2.147-5.139,6.733-2.761,10.245A8.629,8.629,0,0,0,69.515,21.4h4.929v-4.11A6.677,6.677,0,0,0,74.01,10.589Z" transform="translate(296.724 97.139)" fill="#812dbf"/></g></g></g></g></svg>