<svg xmlns="http://www.w3.org/2000/svg" xmlns:xlink="http://www.w3.org/1999/xlink" width="1320" height="850" viewBox="0 0 1320 850"><defs><linearGradient id="a" x1="0.93" y1="0.649" x2="0.052" y2="0.366" gradientUnits="objectBoundingBox"><stop offset="0" stop-color="#9938d2"/><stop offset="1" stop-color="#351087"/></linearGradient><clipPath id="b"><rect width="1320" height="850" fill="#fff"/></clipPath><linearGradient id="c" x1="0.5" y1="0" x2="0.5" y2="1" xlink:href="#a"/><linearGradient id="d" x1="0.5" x2="0.5" y2="1" gradientUnits="objectBoundingBox"><stop offset="0" stop-color="#9636cf"/><stop offset="1" stop-color="#361188"/></linearGradient></defs><g transform="translate(2)"><g transform="translate(-2)"><rect width="1320" height="850" fill="url(#a)"/><g clip-path="url(#b)"><g transform="translate(540.375 -189.362)"><path d="M1062.328,429.491c-8.13,13.978-16.349,28.114-23.931,42.532-26.1,49.634-53.775,118.741-48.808,173.866,4.016,44.922,5.417,87.549,1.063,127.282-5.785,52.9-21.772,100.739-55.389,142.143-21.135,26.072-49.3,49.6-86.265,70.266-58.952,32.952-123.29,51.488-193.206,56.291-71.832,4.963-148.627,19.067-211.263,50.168-59.408,29.465-102.952,76.266-169.7,94.862-45.492,12.662-83.616,14.1-115.254,7.2a147.6,147.6,0,0,1-53.136-22.9c-80.48-55.82-93.266-186.557-73.659-279.569,1.583-7.473,3.35-14.732,5.329-21.671,26.8-94.02,97.654-170.882,131.758-262.012a241.927,241.927,0,0,0,12.18-44.323c12.332-72.688-28.928-159.668,35.5-221.3,69.03-65.966,196.251-18.91,258.187-82.768C522.452,211.4,507.62,134.5,567.85,92.944c154.291-106.487,429.043-7.291,519.115,120.277C1142.628,292.1,1103.5,358.782,1062.328,429.491Z" transform="translate(-24.674 -47.848)" fill="url(#c)"/><path d="M401.178,997.36q-7.9-8.148-15.362-16.578C313.731,1002.206,224.4,998.507,134.9,965.8a514.017,514.017,0,0,1-48.416-20.578c-1.583-.786-3.166-1.54-4.719-2.325C1.285,887.079-11.5,756.341,8.106,663.33c66.259-63.735,150.972-114.871,170.826-228.489,11.449-65.529,27.405-144.213,79.353-196.957C323.2,171.953,439.372,171.2,502.647,99.859c29.872-33.7,56.424-81.138,107.276-95.239C700.939-20.635,775.636,63.829,834.1,108.281c58.191,44.26,136.048,61.816,203.556,92.914a343.011,343.011,0,0,1,50.064,27.645c53.765,36.444,66.617,83.107,53.151,128.718,132.443,194.949,114.265,465.654-54.55,639.8-94.6,97.587-218.584,146.38-342.57,146.38S495.776,1094.947,401.178,997.36Z" transform="translate(0 180.448)" stroke="rgba(0,0,0,0)" stroke-width="1" fill="url(#d)"/></g><g transform="translate(389.812 -213.974)"><path d="M37.708,22.9a12.683,12.683,0,0,0-17.735-4.441,13.554,13.554,0,0,0-4.3,18.3,12.683,12.683,0,0,0,15.69,5.448h7.024V35.444A13.669,13.669,0,0,0,37.708,22.9Z" transform="translate(33.777 108.402)" fill="#812dbf"/><path d="M106.979,22.324a5.917,5.917,0,0,0-.3-5.272,5.584,5.584,0,0,0-7.812-1.961,5.976,5.976,0,0,0-1.9,8.063,5.522,5.522,0,0,0,6.63,2.4h3.381Z" transform="translate(312.057 100.375)" fill="#812dbf"/><path d="M34.233,51.4a2.493,2.493,0,0,0-3.486-.876,2.668,2.668,0,0,0-.85,3.6,2.468,2.468,0,0,0,2.956,1.075h1.511V53.748A2.634,2.634,0,0,0,34.233,51.4Z" transform="translate(86.985 226.669)" fill="#812dbf"/><path d="M98.872.857A10.76,10.76,0,0,0,83.822-2.911,11.5,11.5,0,0,0,80.17,12.615a10.763,10.763,0,0,0,13.317,4.626h5.96V11.5A11.587,11.587,0,0,0,98.872.857Z" transform="translate(252.688 34.256)" fill="#812dbf"/><path d="M66.24,8.632a14.3,14.3,0,0,0-.022-19.768v.1l-.048-.054v.1l-.044-.059v.1l-.048-.054v.1l-.044-.059v.1l-.048-.054v.1l-.044-.059v.1l-.048-.054v.1l-.044-.059v.1l-.048-.054v.1l-.044-.059v.1l-.044-.054v.1l-.048-.059v.1l-.044-.059v.108l-.048-.059v.1l-.044-.059v.108l-.048-.059v.1l-.044-.059v.108l-.048-.059v.1l-.044-.059v.108l-.048-.059v.1l-.044-.059v.108l-.044-.059v.1l-.048-.059v.108L65.119-10v.1l-.048-.059v.108L65.027-9.9v.1l-.048-.059v.1l-.044-.054v.1l-.048-.059v.1l-.044-.054v.1L64.8-9.668v.1l-.044-.054v.1l-.044-.059v.1l-.048-.054v.1l-.044-.059v.1l-.048-.054v.1l-.044-.059v.1l-.048-.054v.1l-.044-.059v.1l-.048-.054v.1l-.044-.059v.1l-.048-.059v.108L64.248-9.1v.1L64.2-9.054v.108L64.156-9v.1l-.044-.059v.108l-.048-.059v.1l-.044-.059v.108l-.048-.059v.1l-.044-.059v.108l-.048-.059v.1l-.044-.059v.1l-.048-.054v.1l-.044-.059v.1L63.7-8.53v.1l-.048-.059v.1l-.044-.054v.1l-.048-.059v.1l-.044-.054v.1l-.048-.059v.1l-.044-.054v.1L63.376-8.2v.1l-.044-.054v.1L63.285-8.1V-8l-.044-.054v.1L63.2-8.01v.1l-.048-.059v.108L63.1-7.915v.1l-.048-.059v.108l-.044-.059v.1l-.048-.059v.108l-.044-.059v.1l-.048-.059v.108l-.044-.059v.1l-.048-.059v.108l-.044-.059v.1l-.044-.059v.108l-.048-.059v.1L62.6-7.4v.108l-.048-.059v.1L62.509-7.3v.1l-.048-.054v.1l-.044-.059v.1l-.048-.054v.1l-.044-.059v.1l-.048-.054v.1l-.044-.059v.1l-.044-.054v.1l-.048-.059v.1L62.1-6.872v.1l-.048-.059v.1l-.044-.059v.108l-.048-.059v.1l-.044-.059v.108l-.048-.059v.1l-.044-.059v.108l-.048-.059v.1L61.73-6.5v.108l-.044-.059v.1L61.638-6.4v.108l-.044-.059v.1l-.048-.059V-6.2L61.5-6.257v.1l-.048-.059v.122c-.018-.023-.026-.054-.044-.072v.117c-.022-.023-.026-.05-.048-.072V-6c-.017-.018-.022-.05-.044-.068v.117c-.022-.023-.026-.05-.048-.072V-5.9c-.018-.018-.022-.05-.044-.068v.117c-.022-.023-.026-.05-.044-.072v.117c-.022-.018-.026-.05-.048-.068v.117c-.018-.023-.026-.05-.044-.072v.117c-.022-.018-.026-.05-.048-.068v.117c-.018-.023-.026-.05-.044-.072v.117c-.022-.018-.026-.05-.048-.068v.117c-.018-.023-.026-.05-.044-.072v.117c-.022-.018-.026-.05-.048-.068v.117c-.018-.023-.022-.05-.044-.072v.117c-.022-.018-.026-.05-.048-.068v.117c-.018-.023-.022-.05-.044-.072v.117c-.022-.023-.026-.05-.044-.068v.117c-.022-.023-.026-.05-.048-.072v.117c-.018-.023-.026-.05-.044-.072v.122c-.022-.023-.026-.05-.048-.072v.117c-.018-.023-.026-.05-.044-.072V-5.1c-.022-.023-.026-.05-.048-.072v.117c-.018-.023-.026-.05-.044-.072V-5c-.022-.023-.026-.05-.048-.072v.117c-.018-.023-.022-.05-.044-.072v.122c-.022-.023-.026-.054-.048-.072v.117c-.017-.023-.022-.05-.044-.072v.117c-.022-.018-.026-.05-.044-.068v.117c-.022-.023-.026-.05-.048-.072v.117c-.018-.018-.026-.05-.044-.068v.117c-.022-.023-.026-.05-.048-.072v.117c-.018-.018-.026-.05-.044-.068v.117c-.022-.023-.026-.05-.048-.072v.117c-.018-.018-.026-.05-.044-.068v.117c-.022-.023-.026-.05-.048-.072v.117c-.018-.018-.022-.05-.044-.068v.117c-.022-.023-.026-.05-.048-.072v.117c-.018-.018-.022-.05-.044-.068v.117c-.022-.023-.026-.05-.044-.072v.117c-.022-.018-.026-.05-.048-.068V-4.2c-.018-.023-.026-.05-.044-.072v.117c-.022-.018-.026-.05-.048-.068V-4.1c-.018-.023-.026-.05-.044-.072v.117c-.022-.023-.026-.05-.048-.072v.122c-.018-.023-.026-.05-.044-.072v.117c-.022-.018-.026-.05-.048-.072v.122c-.018-.023-.022-.05-.044-.072v.117c-.022-.023-.026-.05-.048-.072v.122c-.018-.023-.022-.05-.044-.072v.117c-.018-.023-.026-.05-.044-.072v.122c-.022-.023-.026-.054-.048-.072v.117c-.018-.023-.026-.05-.044-.072v.122c-.022-.023-.026-.054-.048-.072v.117c-.018-.023-.026-.05-.044-.072v.117c-.022-.018-.026-.05-.048-.068v.117c-.018-.023-.026-.05-.044-.072v.122c-.022-.023-.026-.054-.048-.072v.117c-.018-.023-.022-.05-.044-.072v.117c-.022-.018-.026-.05-.048-.068V-3.3c-.018-.023-.022-.05-.044-.072v.117c-.017-.018-.026-.05-.044-.068V-3.2c-.022-.023-.026-.05-.048-.072v.117c-.018-.018-.026-.05-.044-.068v.117c-.022-.023-.026-.05-.048-.072v.117c-.017-.023-.026-.05-.044-.068v.117c-.022-.023-.026-.05-.048-.072v.117c-.018-.018-.026-.05-.044-.068v.117c-.022-.023-.026-.05-.048-.072v.117c-.018-.023-.022-.05-.044-.072v.122c-.022-.023-.026-.05-.048-.072v.117c-.018-.023-.022-.05-.044-.072v.122c-.018-.023-.026-.05-.044-.072v.117c-.022-.023-.026-.05-.048-.072v.122c-.018-.023-.026-.05-.044-.072v.117c-.022-.023-.026-.05-.048-.072v.122c-.018-.023-.026-.054-.044-.072v.117c-.022-.023-.026-.05-.048-.072v.122c-.018-.023-.026-.054-.044-.072v.158c-.026-.032-.018-.081-.048-.113v.163c-.026-.032-.013-.081-.044-.113v.163c-.026-.036-.018-.086-.048-.117v.163h0c-.026-.036-.013-.081-.044-.113v.113h-.018c-.018-.023-.009-.05-.026-.068v.068h-.039l-.009-.018v.018H57.5a1.237,1.237,0,0,0-1.69,0h-.123v-.018l0,.018h-.039v-.063l-.026.063h-.022v-.113c-.026.032-.013.077-.039.113h0v-.158c-.031.032-.018.081-.048.113v-.163c-.031.032-.018.081-.044.117v-.163c-.031.032-.018.081-.044.113v-.158c-.022.018-.031.05-.048.068v-.117c-.022.023-.026.05-.044.072v-.117c-.022.018-.026.05-.048.068v-.117c-.022.023-.026.05-.044.072V-2.7c-.022.018-.026.05-.048.072v-.122c-.022.023-.026.05-.044.072V-2.8c-.022.018-.026.05-.048.072v-.122c-.022.023-.026.05-.044.072v-.117c-.022.023-.026.05-.048.072v-.122c-.018.023-.026.054-.044.072v-.117c-.022.023-.026.05-.048.072v-.117c-.018.018-.026.05-.044.068v-.117c-.022.023-.026.05-.048.072v-.117c-.018.018-.026.05-.044.068v-.117c-.022.023-.026.05-.048.072v-.117c-.018.018-.026.05-.044.072v-.122c-.022.023-.026.05-.048.072v-.117c-.018.018-.026.05-.044.072v-.122c-.022.023-.026.05-.048.072v-.117c-.018.023-.026.05-.044.072v-.122c-.022.023-.026.054-.048.072v-.117c-.018.023-.026.05-.044.072v-.117c-.022.018-.026.05-.048.068V-3.6c-.018.023-.026.05-.044.072v-.117c-.022.018-.026.05-.044.068V-3.7c-.022.023-.026.05-.048.072v-.117c-.022.018-.026.05-.044.072v-.122c-.022.023-.026.05-.048.072v-.117c-.022.023-.026.05-.044.072v-.122c-.022.023-.026.05-.048.072v-.117c-.022.023-.026.05-.044.072v-.122c-.022.023-.026.054-.048.072v-.117c-.022.023-.026.05-.044.072v-.117c-.022.018-.026.05-.048.068v-.117c-.017.023-.026.05-.044.072v-.117c-.022.018-.026.05-.048.068v-.117c-.017.023-.026.05-.044.072v-.117c-.022.018-.026.05-.048.072V-4.31c-.017.023-.026.05-.044.072v-.117c-.022.018-.026.05-.048.072v-.122c-.018.023-.026.05-.044.072V-4.45c-.022.023-.026.05-.048.072V-4.5c-.018.023-.026.054-.044.072v-.117c-.022.023-.026.05-.048.072V-4.59c-.018.018-.026.05-.044.068V-4.64c-.022.023-.026.05-.048.072v-.117c-.018.018-.026.05-.044.068v-.117c-.022.023-.026.05-.048.072V-4.78c-.018.018-.022.05-.044.072V-4.83c-.022.023-.026.05-.048.072v-.117c-.018.018-.022.05-.044.072v-.122c-.022.023-.026.05-.044.072V-4.97c-.022.023-.026.05-.048.072V-5.02c-.022.023-.026.054-.044.072v-.117c-.022.023-.026.05-.048.072V-5.11c-.022.018-.026.05-.044.068V-5.16c-.022.023-.026.05-.048.072V-5.2c-.022.018-.026.05-.044.068v-.117c-.022.023-.026.05-.048.072V-5.3c-.018.018-.026.05-.044.072v-.122c-.022.023-.026.05-.048.072v-.117c-.018.018-.026.05-.044.072v-.122c-.022.023-.026.054-.048.072v-.117c-.018.023-.026.05-.044.072v-.122c-.022.023-.026.054-.048.072v-.117c-.018.023-.026.05-.044.072v-.117c-.022.018-.026.05-.048.068v-.117c-.018.023-.026.05-.044.072v-.117c-.022.018-.026.05-.048.068v-.117c-.018.023-.026.05-.044.072v-.117c-.022.018-.026.05-.048.072v-.122c-.018.023-.026.05-.044.072v-.117c-.022.018-.026.05-.048.072v-.122c-.018.023-.026.054-.044.072v-.117c-.022.023-.026.05-.048.072v-.122c-.018.023-.026.054-.044.072V-6.1c-.022.023-.026.05-.048.072v-.117c-.017.018-.022.05-.044.068V-6.2l-.048.059v-.1l-.044.054v-.1l-.044.059v-.1l-.048.059v-.108L51.6-6.33v-.1l-.048.059v-.108l-.044.059v-.1l-.048.059v-.108l-.044.059v-.1l-.048.059v-.1l-.044.054v-.1l-.048.059v-.1l-.044.054v-.1l-.048.059v-.1l-.044.059v-.108l-.048.059v-.1l-.044.059V-7L51-6.944v-.1l-.044.059V-7.1l-.048.059v-.1l-.044.059v-.1l-.048.054v-.1l-.044.059v-.1l-.048.054v-.1l-.044.059v-.1l-.048.059v-.108l-.044.059v-.1l-.044.059v-.108l-.048.059v-.1l-.044.059v-.108l-.048.059v-.1l-.044.059v-.1l-.048.054v-.1L50.27-7.7v-.1l-.048.054v-.1l-.044.059v-.1l-.048.059v-.108l-.044.059v-.1l-.048.059v-.108l-.044.059v-.1l-.048.059v-.108l-.044.059v-.1l-.048.059v-.1l-.044.054v-.1l-.048.059v-.1l-.044.054v-.1l-.048.059v-.1l-.044.059v-.108l-.048.059v-.1l-.044.059v-.108l-.048.059v-.1l-.044.059v-.108l-.048.059v-.1l-.044.059v-.1l-.044.054v-.1l-.048.059v-.1l-.044.054v-.1l-.048.059v-.1l-.044.059v-.108l-.048.059v-.1l-.044.059v-.108l-.048.059v-.1l-.044.059v-.108l-.048.059v-.1l-.044.059v-.1a11.616,11.616,0,0,0,.018,16.073v.05h-.044l.044.036v.014h-.092l.057.045h-.1l.057.05h-.105l.057.045h-.1l.057.05h-.105l.057.045h-.1l.057.05h-.1l.053.045h-.1l.057.045h-.1l.057.05h-.105l.057.045h-.1l.057.05h-.105l.057.045h-.1l.057.05h-.105l.057.045h-.1l.057.05h-.105l.057.045h-.1l.057.05H48l.053.045h-.1l.057.05h-.1l.057.045h-.105l.057.05h-.1l.057.045h-.105l.057.05h-.1l.057.045h-.105l.057.05h-.1l.057.045h-.1l.053.05h-.1l.057.045h-.1l.053.05h-.1l.057.045h-.1l.057.05h-.105l.057.045h-.1l.057.045h-.105l.057.05h-.1l.057.045H47.17l.057.05h-.1l.057.045h-.1l.053.05h-.1l.057.045h-.1l.053.05h-.1L47,8.844h-.1l.057.05H46.85l.057.045h-.1l.057.05h-.105l.057.045h-.1l.057.05h-.105l.057.045h-.1l.057.05h-.105l.057.045h-.1l.057.05h-.1l.053.045h-.1l.057.05h-.1l.057.045h-.105l.057.05h-.1l.057.045h-.105l.057.05h-.1l.057.045h-.105l.057.05h-.1l.057.045h-.105l.057.05h-.1l.057.045h-.1l.053.05h-.1l.057.045h-.1l.057.045h-.105l.057.05h-.1l.057.045h-.105l.057.05h-.1l.057.045h-.105l.057.05h-.1l.057.045h-.105l.057.05h-.1l.057.045h-.1l.053.05h-.1l.057.045h-.1l.057.05h-.105l.057.045h-.1l.057.05h-.105l.057.045h-.1l.057.05h-.105l.057.045h-.1l.057.05h-.105l.057.045h-.1l.057.05h-.1A16.173,16.173,0,0,0,68.351,10.8h-.1l.057-.05h-.1l.053-.045h-.1l.057-.05h-.1l.053-.045h-.1l.057-.045h-.1l.053-.05h-.1l.057-.045h-.1l.053-.05h-.1l.057-.045h-.1l.053-.05h-.1l.057-.045h-.1l.057-.05H67.7l.057-.045h-.1l.057-.05h-.105l.057-.045h-.1l.057-.045h-.105l.057-.05h-.1l.057-.045h-.105l.057-.05h-.1l.057-.045h-.105l.057-.05h-.1l.057-.045h-.105l.057-.05h-.1l.057-.045h-.105l.057-.05h-.1l.057-.045h-.1l.053-.045h-.1l.057-.05h-.1l.053-.045h-.1l.057-.05h-.1l.053-.045h-.1l.057-.05h-.1l.053-.045h-.1l.057-.05h-.1l.053-.045h-.1L66.7,9.1h-.1l.053-.045h-.1l.057-.05h-.1l.053-.045h-.1l.057-.045h-.1l.057-.05h-.105l.057-.045h-.1l.057-.05h-.105l.057-.045h-.1v0l.053-.045h-.053V8.636Z" transform="translate(139.181 11.136)" fill="#812dbf"/><path d="M86.824,31.565a12.967,12.967,0,0,0,0,25.92,12.207,12.207,0,0,0,6.8-2.092h2.864V52.711a13.094,13.094,0,0,0,2.894-8.185A12.764,12.764,0,0,0,86.824,31.565Z" transform="translate(238.147 161.329)" fill="#812dbf"/><path d="M13.464,40.021a5.579,5.579,0,0,0-7.812-1.956,5.969,5.969,0,0,0-1.9,8.059,5.523,5.523,0,0,0,6.63,2.4h3.381V45.292A5.9,5.9,0,0,0,13.464,40.021Z" transform="translate(-2.921 181.166)" fill="#812dbf"/><path d="M14.088,3.281A5.592,5.592,0,0,0,6.271,1.325a5.969,5.969,0,0,0-1.9,8.063A5.519,5.519,0,0,0,11,11.792h3.385V8.558A5.926,5.926,0,0,0,14.088,3.281Z" transform="translate(-0.825 51.952)" fill="#812dbf"/><path d="M61.634,65.234a5.588,5.588,0,0,0-7.816-1.961,5.979,5.979,0,0,0-1.9,8.063,5.523,5.523,0,0,0,6.63,2.4h3.381V70.505A5.918,5.918,0,0,0,61.634,65.234Z" transform="translate(159.841 269.843)" fill="#812dbf"/><path d="M102.224,42.87a5.587,5.587,0,0,0-7.812-1.956,5.974,5.974,0,0,0-1.9,8.063,5.529,5.529,0,0,0,6.625,2.4h3.385V48.146A5.926,5.926,0,0,0,102.224,42.87Z" transform="translate(296.997 191.199)" fill="#812dbf"/><path d="M69.2,9.827a5.589,5.589,0,0,0-7.817-1.961,5.979,5.979,0,0,0-1.9,8.063,5.519,5.519,0,0,0,6.625,2.4H69.5V15.1A5.918,5.918,0,0,0,69.2,9.827Z" transform="translate(185.413 74.959)" fill="#812dbf"/></g></g></g></g></svg>