<svg xmlns="http://www.w3.org/2000/svg" width="113.918" height="92.112" viewBox="0 0 113.918 92.112"><g transform="translate(-31.807 -171.88)"><path d="M145.725,234.606a23.055,23.055,0,1,1-23.054-23.055A23.053,23.053,0,0,1,145.725,234.606Z" fill="#e543c4"/><path d="M122.137,217.936h-1.785a42.485,42.485,0,1,1-12.443-30.044,42.343,42.343,0,0,1,12.443,30.044h3.568a46.056,46.056,0,1,0-46.055,46.056,46.056,46.056,0,0,0,46.055-46.056Z" fill="#8828ba"/><path d="M137.155,234.6a14.485,14.485,0,1,1-14.484-14.485A14.485,14.485,0,0,1,137.155,234.6Z" fill="#852fc2"/></g></svg>