<svg xmlns="http://www.w3.org/2000/svg" xmlns:xlink="http://www.w3.org/1999/xlink" width="183.264" height="31.502" viewBox="0 0 183.264 31.502"><defs><style>.a,.c{fill:#fff;}.a{font-size:20px;font-family:Poppins-SemiBold, Poppins;font-weight:600;letter-spacing:-0.01em;}.b{fill:url(#a);}.d{fill:url(#b);}.e{fill:#f2efef;}.f{fill:url(#l);}.g{fill:#d6d2d2;}</style><radialGradient id="a" cx="-77.3" cy="-89.759" r="31.199" gradientTransform="translate(-8.351 -9.697) scale(0.892 0.892)" gradientUnits="userSpaceOnUse"><stop offset="0" stop-color="#c8c8c8"/><stop offset="0.185" stop-color="#c2c2c2"/><stop offset="0.424" stop-color="#b2b2b2"/><stop offset="0.693" stop-color="#979797"/><stop offset="0.981" stop-color="#727272"/><stop offset="1" stop-color="#707070"/></radialGradient><linearGradient id="b" x1="0.5" x2="0.5" y2="1" gradientUnits="objectBoundingBox"><stop offset="0" stop-color="#9636cf"/><stop offset="1" stop-color="#361188"/></linearGradient><radialGradient id="l" cx="88.302" cy="107.642" r="31.199" gradientTransform="translate(-15.934 -18.984) scale(0.892 0.892)" xlink:href="#a"/></defs><g transform="translate(-71.605 -30.061)"><text class="a" transform="translate(125.87 54.563)"><tspan x="0" y="0">Royal Palace</tspan></text><g transform="translate(87.623 62.182) rotate(-141)"><path class="b" d="M12.605,18.942a3.9,3.9,0,0,1-3.531,0A1.076,1.076,0,0,1,9.08,16.9a3.9,3.9,0,0,1,3.531,0A1.076,1.076,0,0,1,12.605,18.942ZM18.177,1.384A3.9,3.9,0,0,0,19.94,4.444c.975.565,1.768.111,1.768-1.014A3.9,3.9,0,0,0,19.945.369C18.97-.2,18.179.259,18.177,1.384ZM1.763,4.32A3.9,3.9,0,0,0,3.531,1.264C3.533.137,2.744-.322,1.769.24A3.9,3.9,0,0,0,0,3.3C0,4.424.788,4.881,1.763,4.32Zm9.079-1.742A4.825,4.825,0,1,0,15.668,7.4,4.825,4.825,0,0,0,10.842,2.579Z" transform="translate(0.024 4.37)"/><g transform="translate(0 0)"><g transform="translate(0 6.39)"><path class="c" d="M9.009,4.431,5.493,2.395l-.1-.06L1.875.3l-.1-.06C.805-.32.013.134.012,1.25L0,9.622a3.9,3.9,0,0,0,1.755,3.046l.1.059,3.516,2.036.1.059,3.516,2.036.1.059c.967.56,1.759.105,1.761-1.01l.012-8.372A3.9,3.9,0,0,0,9.111,4.491Z"/><g transform="translate(1.107 1.657)"><path class="d" d="M2.642,2.471c0,.842-.594,1.182-1.323.76A2.921,2.921,0,0,1,0,.941C0,.1.593-.241,1.323.182A2.921,2.921,0,0,1,2.642,2.471Z"/><g transform="translate(3.005 5.217)"><path class="d" d="M2.642,2.471c0,.842-.594,1.183-1.323.76A2.921,2.921,0,0,1,0,.94C0,.1.594-.241,1.323.182A2.92,2.92,0,0,1,2.642,2.471Z"/></g><g transform="translate(6.01 10.433)"><path class="d" d="M2.642,2.471c0,.842-.594,1.182-1.323.759A2.918,2.918,0,0,1,0,.941C0,.1.594-.241,1.323.182A2.92,2.92,0,0,1,2.642,2.471Z"/></g></g></g><g transform="translate(10.866 6.404)"><path class="c" d="M9.008.3,5.493,2.319l-.1.059L1.875,4.4l-.1.059A3.9,3.9,0,0,0,.011,7.5L0,15.889c0,1.117.788,1.576,1.755,1.02l.1-.059,3.515-2.023.1-.059,3.515-2.023.1-.059a3.9,3.9,0,0,0,1.761-3.043l.011-8.385c0-1.117-.788-1.576-1.755-1.02Z"/><g transform="translate(2.744 5.101)"><path class="d" d="M5.377,1.924A5.945,5.945,0,0,1,2.685,6.579C1.2,7.434,0,6.735,0,5.019A5.944,5.944,0,0,1,2.693.364C4.178-.49,5.38.209,5.377,1.924Z"/></g></g><g transform="translate(1.05 0)"><path class="e" d="M18.736,4.6l-3.51-2.033-.1-.059L11.614.48l-.1-.059A3.9,3.9,0,0,0,8,.417L.728,4.6a1.073,1.073,0,0,0-.006,2.03l.1.059,3.51,2.033.1.059,3.51,2.033.1.059a3.9,3.9,0,0,0,3.516,0l7.268-4.183a1.073,1.073,0,0,0,.006-2.03Z"/><g transform="translate(7.902 1.092)"><g transform="translate(0.019 0)"><path class="d" d="M3.188,1.843a2.921,2.921,0,0,1-2.643,0A.805.805,0,0,1,.55.315a2.92,2.92,0,0,1,2.642,0A.805.805,0,0,1,3.188,1.843Z"/></g><g transform="translate(0.01 3.476)"><path class="d" d="M3.188,1.843a2.921,2.921,0,0,1-2.643,0A.806.806,0,0,1,.55.315a2.921,2.921,0,0,1,2.642,0A.805.805,0,0,1,3.188,1.843Z"/></g><g transform="translate(0 6.951)"><path class="d" d="M3.188,1.843a2.919,2.919,0,0,1-2.642,0A.8.8,0,0,1,.55.315a2.919,2.919,0,0,1,2.642,0A.805.805,0,0,1,3.188,1.843Z"/></g></g></g><g transform="translate(2.828 4.568)"><g transform="translate(12.04 0)"><path class="d" d="M.546.317a.805.805,0,0,0,0,1.526,2.921,2.921,0,0,0,2.643,0,.805.805,0,0,0,0-1.525A2.92,2.92,0,0,0,.546.317Z"/></g><g transform="translate(6.02 0.006)"><path class="d" d="M.545.317a.805.805,0,0,0,0,1.526,2.921,2.921,0,0,0,2.643,0,.805.805,0,0,0,0-1.526A2.921,2.921,0,0,0,.545.317Z"/></g><g transform="translate(0 0.011)"><path class="d" d="M.545.317a.805.805,0,0,0,0,1.526,2.918,2.918,0,0,0,2.642,0,.805.805,0,0,0,0-1.525A2.92,2.92,0,0,0,.545.317Z"/></g></g></g></g><g transform="translate(94.848 34.255)"><path class="f" d="M249.717,302.314a3.9,3.9,0,0,1-3.531,0,1.076,1.076,0,0,1,.006-2.039,3.9,3.9,0,0,1,3.531,0A1.076,1.076,0,0,1,249.717,302.314Zm5.572-17.558a3.9,3.9,0,0,0,1.763,3.059c.975.565,1.768.111,1.768-1.014a3.9,3.9,0,0,0-1.763-3.06C256.082,283.175,255.291,283.63,255.289,284.755Zm-16.414,2.936a3.9,3.9,0,0,0,1.768-3.056c0-1.127-.787-1.586-1.763-1.024a3.9,3.9,0,0,0-1.769,3.057C237.111,287.795,237.9,288.253,238.875,287.692Zm9.079-1.742a4.825,4.825,0,1,0,4.825,4.825A4.825,4.825,0,0,0,247.954,285.95Z" transform="translate(-237.088 -279.001)"/><g transform="translate(0 0)"><g transform="translate(0 6.39)"><path class="c" d="M246,297.671l-3.516-2.036-.1-.06-3.516-2.036-.1-.06c-.967-.56-1.759-.105-1.761,1.01L237,302.861a3.9,3.9,0,0,0,1.755,3.046l.1.059L242.369,308l.1.059,3.516,2.036.1.059c.967.56,1.759.105,1.761-1.01l.012-8.372a3.9,3.9,0,0,0-1.755-3.046Z" transform="translate(-236.996 -293.24)"/><g transform="translate(1.107 1.657)"><path class="d" d="M245.045,303.806c0,.842-.594,1.182-1.323.76a2.921,2.921,0,0,1-1.319-2.29c0-.841.593-1.182,1.323-.759A2.921,2.921,0,0,1,245.045,303.806Z" transform="translate(-242.403 -301.335)"/><g transform="translate(3.005 5.217)"><path class="d" d="M259.726,329.29c0,.842-.594,1.183-1.323.76a2.921,2.921,0,0,1-1.319-2.29c0-.841.594-1.182,1.323-.759A2.92,2.92,0,0,1,259.726,329.29Z" transform="translate(-257.084 -326.82)"/></g><g transform="translate(6.01 10.433)"><path class="d" d="M274.408,354.774c0,.842-.594,1.182-1.323.759a2.918,2.918,0,0,1-1.319-2.289c0-.842.594-1.182,1.323-.759A2.92,2.92,0,0,1,274.408,354.774Z" transform="translate(-271.766 -352.303)"/></g></g></g><g transform="translate(10.866 6.404)"><path class="g" d="M299.089,293.6l-3.515,2.023-.1.059-3.515,2.023-.1.059a3.9,3.9,0,0,0-1.761,3.043l-.011,8.385c0,1.117.788,1.576,1.755,1.02l.1-.059,3.515-2.023.1-.059,3.515-2.023.1-.059a3.9,3.9,0,0,0,1.761-3.043l.011-8.385c0-1.117-.788-1.576-1.755-1.02Z" transform="translate(-290.081 -293.306)"/><g transform="translate(2.744 5.101)"><path class="d" d="M308.865,320.149a5.945,5.945,0,0,1-2.693,4.655c-1.485.855-2.687.156-2.685-1.561a5.944,5.944,0,0,1,2.693-4.654C307.666,317.735,308.868,318.434,308.865,320.149Z" transform="translate(-303.488 -318.225)"/></g></g><g transform="translate(1.05)"><path class="e" d="M260.862,266.626l-3.51-2.033-.1-.059-3.51-2.033-.1-.059a3.9,3.9,0,0,0-3.516,0l-7.268,4.182a1.073,1.073,0,0,0-.006,2.03l.1.059,3.51,2.033.1.059,3.51,2.033.1.059a3.9,3.9,0,0,0,3.516,0l7.268-4.183a1.073,1.073,0,0,0,.006-2.03Z" transform="translate(-242.126 -262.021)"/><g transform="translate(7.902 1.092)"><g transform="translate(0.019)"><path class="d" d="M284.013,269.2a2.921,2.921,0,0,1-2.643,0,.805.805,0,0,1,0-1.526,2.92,2.92,0,0,1,2.642,0A.805.805,0,0,1,284.013,269.2Z" transform="translate(-280.825 -267.358)"/></g><g transform="translate(0.01 3.476)"><path class="d" d="M283.965,286.181a2.921,2.921,0,0,1-2.643,0,.806.806,0,0,1,0-1.526,2.921,2.921,0,0,1,2.642,0A.805.805,0,0,1,283.965,286.181Z" transform="translate(-280.777 -284.338)"/></g><g transform="translate(0 6.951)"><path class="d" d="M283.918,303.161a2.919,2.919,0,0,1-2.642,0,.8.8,0,0,1,0-1.525,2.919,2.919,0,0,1,2.642,0A.805.805,0,0,1,283.918,303.161Z" transform="translate(-280.73 -301.318)"/></g></g></g><g transform="translate(2.828 4.568)"><g transform="translate(12.04)"><path class="d" d="M310.177,284.655a.805.805,0,0,0,0,1.526,2.921,2.921,0,0,0,2.643,0,.805.805,0,0,0,0-1.525A2.92,2.92,0,0,0,310.177,284.655Z" transform="translate(-309.632 -284.338)"/></g><g transform="translate(6.02 0.006)"><path class="d" d="M280.766,284.682a.805.805,0,0,0,0,1.526,2.921,2.921,0,0,0,2.643,0,.805.805,0,0,0,0-1.526A2.921,2.921,0,0,0,280.766,284.682Z" transform="translate(-280.22 -284.365)"/></g><g transform="translate(0 0.011)"><path class="d" d="M251.356,284.709a.805.805,0,0,0,0,1.526,2.918,2.918,0,0,0,2.642,0,.805.805,0,0,0,0-1.525A2.92,2.92,0,0,0,251.356,284.709Z" transform="translate(-250.811 -284.392)"/></g></g></g></g></g></svg>